<svg width="138" height="146" viewBox="0 0 138 146" fill="none" xmlns="http://www.w3.org/2000/svg">
<path d="M0.5 73.5998C0.499999 86.1644 4.66424 98.3783 12.3475 108.349C20.0307 118.319 30.8039 125.49 42.9976 128.749C55.1914 132.008 68.125 131.174 79.7941 126.376C91.4633 121.578 101.217 113.084 107.542 102.21C113.868 91.3366 116.414 78.69 114.785 66.2305C113.155 53.7709 107.442 42.1939 98.5299 33.2935C89.6179 24.3931 78.0049 18.6663 65.4905 17.0003C52.976 15.3344 40.2588 17.8224 29.3094 24.0788L43.5958 48.8393C49.0705 45.7111 55.4291 44.4671 61.6863 45.3001C67.9436 46.133 73.7501 48.9965 78.206 53.4467C82.662 57.8969 85.5187 63.6853 86.3334 69.9151C87.1481 76.1449 85.8753 82.4682 82.7123 87.9051C79.5494 93.342 74.6727 97.589 68.8382 99.988C63.0036 102.387 56.5368 102.804 50.4399 101.174C44.343 99.5447 38.9564 95.9595 35.1148 90.9743C31.2732 85.9891 29.1911 79.8821 29.1911 73.5998H0.5Z" fill="white"/>
<rect x="0.5" y="0.0788879" width="28.6911" height="74.9485" fill="white"/>
<path d="M93.746 85.7343L131.638 130.703H55.854L93.746 85.7343Z" fill="white"/>
</svg>
