<svg width="206" height="205" viewBox="0 0 206 205" fill="none" xmlns="http://www.w3.org/2000/svg">
<rect width="206" height="205" rx="46" fill="url(#paint0_radial_103_66)"/>
<path d="M45.5 108.6C45.5 121.164 49.6642 133.378 57.3475 143.349C65.0307 153.319 75.8039 160.49 87.9976 163.749C100.191 167.008 113.125 166.174 124.794 161.376C136.463 156.578 146.217 148.084 152.542 137.21C158.868 126.337 161.414 113.69 159.785 101.23C158.155 88.7709 152.442 77.1939 143.53 68.2935C134.618 59.3931 123.005 53.6663 110.49 52.0003C97.976 50.3344 85.2588 52.8224 74.3094 59.0788L88.5958 83.8393C94.0705 80.7111 100.429 79.4671 106.686 80.3001C112.944 81.133 118.75 83.9965 123.206 88.4467C127.662 92.8969 130.519 98.6853 131.333 104.915C132.148 111.145 130.875 117.468 127.712 122.905C124.549 128.342 119.673 132.589 113.838 134.988C108.004 137.387 101.537 137.804 95.4399 136.174C89.343 134.545 83.9564 130.96 80.1148 125.974C76.2732 120.989 74.1911 114.882 74.1911 108.6H45.5Z" fill="white"/>
<rect x="45.5" y="35.0789" width="28.6911" height="74.9485" fill="white"/>
<path d="M138.746 120.734L176.638 165.703H100.854L138.746 120.734Z" fill="white"/>
<defs>
<radialGradient id="paint0_radial_103_66" cx="0" cy="0" r="1" gradientUnits="userSpaceOnUse" gradientTransform="translate(16.5 205) rotate(-49.1683) scale(259.429 259.615)">
<stop stop-color="#6A82FB"/>
<stop offset="1" stop-color="#FC5C7D"/>
</radialGradient>
</defs>
</svg>
